<svg id="canvas" height="auto" xmlns="http://www.w3.org/2000/svg" version="1.1" xmlns:xlink="http://www.w3.org/1999/xlink" xmlns:svgjs="http://svgjs.dev/svgjs" viewBox="0 0 720 420" width="auto" style="width: auto; height: auto;"><rect width="720" height="420" fill="#242a43"/><mask id="mask" mask-type="alpha" maskUnits="userSpaceOnUse"><rect transform="translate(0, 0)" width="720" height="420" fill="white"/></mask><svg><path transform="translate(0, 120) translate(30,30) rotate(0) translate(-30,-30)" d="M0 60C33.1371 60 60 33.1371 60 5.24537e-06L5.24537e-06 0L0 60Z" fill="#ff6b6b"/></svg><svg><path transform="translate(0, 180) translate(30,30) rotate(180) translate(-30,-30)" d="M0 60C33.1371 60 60 33.1371 60 5.24537e-06L5.24537e-06 0L0 60Z" fill="#c44d58"/></svg><svg><path transform="translate(0, 240) translate(30,30) rotate(0) translate(-30,-30)" d="M0 60C33.1371 60 60 33.1371 60 5.24537e-06L5.24537e-06 0L0 60Z" fill="#4ecdc4"/></svg><svg><path transform="translate(0, 360) translate(30,30) rotate(180) translate(-30,-30)" d="M0 60C33.1371 60 60 33.1371 60 5.24537e-06L5.24537e-06 0L0 60Z" fill="#c7f464"/></svg><svg><path transform="translate(60, 0) translate(30,30) rotate(180) translate(-30,-30)" d="M0 60C33.1371 60 60 33.1371 60 5.24537e-06L5.24537e-06 0L0 60Z" fill="#4ecdc4"/></svg><svg><path transform="translate(60, 60) translate(30,30) rotate(270) translate(-30,-30)" d="M0 60C33.1371 60 60 33.1371 60 5.24537e-06L5.24537e-06 0L0 60Z" fill="#c44d58"/></svg><svg><path transform="translate(60, 120) translate(30,30) rotate(0) translate(-30,-30)" d="M0 60C33.1371 60 60 33.1371 60 5.24537e-06L5.24537e-06 0L0 60Z" fill="#556270"/></svg><svg><path transform="translate(60, 180) translate(30,30) rotate(270) translate(-30,-30)" d="M0 60C33.1371 60 60 33.1371 60 5.24537e-06L5.24537e-06 0L0 60Z" fill="#ff6b6b"/></svg><svg><path transform="translate(60, 240) translate(30,30) rotate(90) translate(-30,-30)" d="M0 60C33.1371 60 60 33.1371 60 5.24537e-06L5.24537e-06 0L0 60Z" fill="#c7f464"/></svg><svg><path transform="translate(60, 300) translate(30,30) rotate(180) translate(-30,-30)" d="M0 60C33.1371 60 60 33.1371 60 5.24537e-06L5.24537e-06 0L0 60Z" fill="#ff6b6b"/></svg><svg><path transform="translate(60, 360) translate(30,30) rotate(180) translate(-30,-30)" d="M0 60C33.1371 60 60 33.1371 60 5.24537e-06L5.24537e-06 0L0 60Z" fill="#c44d58"/></svg><svg><path transform="translate(120, 0) translate(30,30) rotate(270) translate(-30,-30)" d="M0 60C33.1371 60 60 33.1371 60 5.24537e-06L5.24537e-06 0L0 60Z" fill="#c7f464"/></svg><svg><path transform="translate(120, 60) translate(30,30) rotate(90) translate(-30,-30)" d="M0 60C33.1371 60 60 33.1371 60 5.24537e-06L5.24537e-06 0L0 60Z" fill="#4ecdc4"/></svg><svg><path transform="translate(120, 180) translate(30,30) rotate(0) translate(-30,-30)" d="M0 60C33.1371 60 60 33.1371 60 5.24537e-06L5.24537e-06 0L0 60Z" fill="#556270"/></svg><svg><path transform="translate(120, 240) translate(30,30) rotate(180) translate(-30,-30)" d="M0 60C33.1371 60 60 33.1371 60 5.24537e-06L5.24537e-06 0L0 60Z" fill="#c7f464"/></svg><svg><path transform="translate(120, 300) translate(30,30) rotate(0) translate(-30,-30)" d="M0 60C33.1371 60 60 33.1371 60 5.24537e-06L5.24537e-06 0L0 60Z" fill="#c44d58"/></svg><svg><path transform="translate(120, 360) translate(30,30) rotate(0) translate(-30,-30)" d="M0 60C33.1371 60 60 33.1371 60 5.24537e-06L5.24537e-06 0L0 60Z" fill="#556270"/></svg><svg><path transform="translate(180, 0) translate(30,30) rotate(90) translate(-30,-30)" d="M0 60C33.1371 60 60 33.1371 60 5.24537e-06L5.24537e-06 0L0 60Z" fill="#4ecdc4"/></svg><svg><path transform="translate(180, 60) translate(30,30) rotate(90) translate(-30,-30)" d="M0 60C33.1371 60 60 33.1371 60 5.24537e-06L5.24537e-06 0L0 60Z" fill="#ff6b6b"/></svg><svg><path transform="translate(180, 120) translate(30,30) rotate(180) translate(-30,-30)" d="M0 60C33.1371 60 60 33.1371 60 5.24537e-06L5.24537e-06 0L0 60Z" fill="#ff6b6b"/></svg><svg><path transform="translate(180, 240) translate(30,30) rotate(180) translate(-30,-30)" d="M0 60C33.1371 60 60 33.1371 60 5.24537e-06L5.24537e-06 0L0 60Z" fill="#c44d58"/></svg><svg><path transform="translate(180, 300) translate(30,30) rotate(180) translate(-30,-30)" d="M0 60C33.1371 60 60 33.1371 60 5.24537e-06L5.24537e-06 0L0 60Z" fill="#c7f464"/></svg><svg><path transform="translate(180, 360) translate(30,30) rotate(0) translate(-30,-30)" d="M0 60C33.1371 60 60 33.1371 60 5.24537e-06L5.24537e-06 0L0 60Z" fill="#556270"/></svg><svg><path transform="translate(240, 180) translate(30,30) rotate(0) translate(-30,-30)" d="M0 60C33.1371 60 60 33.1371 60 5.24537e-06L5.24537e-06 0L0 60Z" fill="#556270"/></svg><svg><path transform="translate(240, 300) translate(30,30) rotate(0) translate(-30,-30)" d="M0 60C33.1371 60 60 33.1371 60 5.24537e-06L5.24537e-06 0L0 60Z" fill="#556270"/></svg><svg><path transform="translate(240, 360) translate(30,30) rotate(90) translate(-30,-30)" d="M0 60C33.1371 60 60 33.1371 60 5.24537e-06L5.24537e-06 0L0 60Z" fill="#c7f464"/></svg><svg><path transform="translate(300, 0) translate(30,30) rotate(90) translate(-30,-30)" d="M0 60C33.1371 60 60 33.1371 60 5.24537e-06L5.24537e-06 0L0 60Z" fill="#4ecdc4"/></svg><svg><path transform="translate(300, 60) translate(30,30) rotate(0) translate(-30,-30)" d="M0 60C33.1371 60 60 33.1371 60 5.24537e-06L5.24537e-06 0L0 60Z" fill="#556270"/></svg><svg><path transform="translate(300, 180) translate(30,30) rotate(0) translate(-30,-30)" d="M0 60C33.1371 60 60 33.1371 60 5.24537e-06L5.24537e-06 0L0 60Z" fill="#c7f464"/></svg><svg><path transform="translate(300, 240) translate(30,30) rotate(270) translate(-30,-30)" d="M0 60C33.1371 60 60 33.1371 60 5.24537e-06L5.24537e-06 0L0 60Z" fill="#4ecdc4"/></svg><svg><path transform="translate(300, 300) translate(30,30) rotate(180) translate(-30,-30)" d="M0 60C33.1371 60 60 33.1371 60 5.24537e-06L5.24537e-06 0L0 60Z" fill="#4ecdc4"/></svg><svg><path transform="translate(300, 360) translate(30,30) rotate(180) translate(-30,-30)" d="M0 60C33.1371 60 60 33.1371 60 5.24537e-06L5.24537e-06 0L0 60Z" fill="#4ecdc4"/></svg><svg><path transform="translate(360, 0) translate(30,30) rotate(180) translate(-30,-30)" d="M0 60C33.1371 60 60 33.1371 60 5.24537e-06L5.24537e-06 0L0 60Z" fill="#4ecdc4"/></svg><svg><path transform="translate(360, 60) translate(30,30) rotate(270) translate(-30,-30)" d="M0 60C33.1371 60 60 33.1371 60 5.24537e-06L5.24537e-06 0L0 60Z" fill="#ff6b6b"/></svg><svg><path transform="translate(360, 120) translate(30,30) rotate(0) translate(-30,-30)" d="M0 60C33.1371 60 60 33.1371 60 5.24537e-06L5.24537e-06 0L0 60Z" fill="#c7f464"/></svg><svg><path transform="translate(360, 180) translate(30,30) rotate(180) translate(-30,-30)" d="M0 60C33.1371 60 60 33.1371 60 5.24537e-06L5.24537e-06 0L0 60Z" fill="#556270"/></svg><svg><path transform="translate(360, 240) translate(30,30) rotate(0) translate(-30,-30)" d="M0 60C33.1371 60 60 33.1371 60 5.24537e-06L5.24537e-06 0L0 60Z" fill="#c7f464"/></svg><svg><path transform="translate(360, 300) translate(30,30) rotate(0) translate(-30,-30)" d="M0 60C33.1371 60 60 33.1371 60 5.24537e-06L5.24537e-06 0L0 60Z" fill="#ff6b6b"/></svg><svg><path transform="translate(360, 360) translate(30,30) rotate(90) translate(-30,-30)" d="M0 60C33.1371 60 60 33.1371 60 5.24537e-06L5.24537e-06 0L0 60Z" fill="#4ecdc4"/></svg><svg><path transform="translate(420, 0) translate(30,30) rotate(90) translate(-30,-30)" d="M0 60C33.1371 60 60 33.1371 60 5.24537e-06L5.24537e-06 0L0 60Z" fill="#c7f464"/></svg><svg><path transform="translate(420, 120) translate(30,30) rotate(180) translate(-30,-30)" d="M0 60C33.1371 60 60 33.1371 60 5.24537e-06L5.24537e-06 0L0 60Z" fill="#4ecdc4"/></svg><svg><path transform="translate(420, 240) translate(30,30) rotate(270) translate(-30,-30)" d="M0 60C33.1371 60 60 33.1371 60 5.24537e-06L5.24537e-06 0L0 60Z" fill="#4ecdc4"/></svg><svg><path transform="translate(420, 300) translate(30,30) rotate(270) translate(-30,-30)" d="M0 60C33.1371 60 60 33.1371 60 5.24537e-06L5.24537e-06 0L0 60Z" fill="#c7f464"/></svg><svg><path transform="translate(420, 360) translate(30,30) rotate(0) translate(-30,-30)" d="M0 60C33.1371 60 60 33.1371 60 5.24537e-06L5.24537e-06 0L0 60Z" fill="#ff6b6b"/></svg><svg><path transform="translate(480, 0) translate(30,30) rotate(0) translate(-30,-30)" d="M0 60C33.1371 60 60 33.1371 60 5.24537e-06L5.24537e-06 0L0 60Z" fill="#ff6b6b"/></svg><svg><path transform="translate(480, 60) translate(30,30) rotate(90) translate(-30,-30)" d="M0 60C33.1371 60 60 33.1371 60 5.24537e-06L5.24537e-06 0L0 60Z" fill="#4ecdc4"/></svg><svg><path transform="translate(480, 120) translate(30,30) rotate(180) translate(-30,-30)" d="M0 60C33.1371 60 60 33.1371 60 5.24537e-06L5.24537e-06 0L0 60Z" fill="#c7f464"/></svg><svg><path transform="translate(480, 300) translate(30,30) rotate(0) translate(-30,-30)" d="M0 60C33.1371 60 60 33.1371 60 5.24537e-06L5.24537e-06 0L0 60Z" fill="#556270"/></svg><svg><path transform="translate(480, 360) translate(30,30) rotate(180) translate(-30,-30)" d="M0 60C33.1371 60 60 33.1371 60 5.24537e-06L5.24537e-06 0L0 60Z" fill="#c7f464"/></svg><svg><path transform="translate(540, 0) translate(30,30) rotate(270) translate(-30,-30)" d="M0 60C33.1371 60 60 33.1371 60 5.24537e-06L5.24537e-06 0L0 60Z" fill="#c44d58"/></svg><svg><path transform="translate(540, 60) translate(30,30) rotate(0) translate(-30,-30)" d="M0 60C33.1371 60 60 33.1371 60 5.24537e-06L5.24537e-06 0L0 60Z" fill="#ff6b6b"/></svg><svg><path transform="translate(540, 240) translate(30,30) rotate(270) translate(-30,-30)" d="M0 60C33.1371 60 60 33.1371 60 5.24537e-06L5.24537e-06 0L0 60Z" fill="#4ecdc4"/></svg><svg><path transform="translate(540, 300) translate(30,30) rotate(270) translate(-30,-30)" d="M0 60C33.1371 60 60 33.1371 60 5.24537e-06L5.24537e-06 0L0 60Z" fill="#ff6b6b"/></svg><svg><path transform="translate(600, 0) translate(30,30) rotate(90) translate(-30,-30)" d="M0 60C33.1371 60 60 33.1371 60 5.24537e-06L5.24537e-06 0L0 60Z" fill="#4ecdc4"/></svg><svg><path transform="translate(600, 60) translate(30,30) rotate(270) translate(-30,-30)" d="M0 60C33.1371 60 60 33.1371 60 5.24537e-06L5.24537e-06 0L0 60Z" fill="#ff6b6b"/></svg><svg><path transform="translate(600, 120) translate(30,30) rotate(270) translate(-30,-30)" d="M0 60C33.1371 60 60 33.1371 60 5.24537e-06L5.24537e-06 0L0 60Z" fill="#556270"/></svg><svg><path transform="translate(600, 240) translate(30,30) rotate(0) translate(-30,-30)" d="M0 60C33.1371 60 60 33.1371 60 5.24537e-06L5.24537e-06 0L0 60Z" fill="#4ecdc4"/></svg><svg><path transform="translate(600, 300) translate(30,30) rotate(180) translate(-30,-30)" d="M0 60C33.1371 60 60 33.1371 60 5.24537e-06L5.24537e-06 0L0 60Z" fill="#ff6b6b"/></svg><svg><path transform="translate(600, 360) translate(30,30) rotate(180) translate(-30,-30)" d="M0 60C33.1371 60 60 33.1371 60 5.24537e-06L5.24537e-06 0L0 60Z" fill="#ff6b6b"/></svg><svg><path transform="translate(660, 0) translate(30,30) rotate(180) translate(-30,-30)" d="M0 60C33.1371 60 60 33.1371 60 5.24537e-06L5.24537e-06 0L0 60Z" fill="#ff6b6b"/></svg><svg><path transform="translate(660, 60) translate(30,30) rotate(180) translate(-30,-30)" d="M0 60C33.1371 60 60 33.1371 60 5.24537e-06L5.24537e-06 0L0 60Z" fill="#ff6b6b"/></svg><svg><path transform="translate(660, 120) translate(30,30) rotate(270) translate(-30,-30)" d="M0 60C33.1371 60 60 33.1371 60 5.24537e-06L5.24537e-06 0L0 60Z" fill="#ff6b6b"/></svg><svg><path transform="translate(660, 180) translate(30,30) rotate(90) translate(-30,-30)" d="M0 60C33.1371 60 60 33.1371 60 5.24537e-06L5.24537e-06 0L0 60Z" fill="#4ecdc4"/></svg><svg><path transform="translate(660, 240) translate(30,30) rotate(90) translate(-30,-30)" d="M0 60C33.1371 60 60 33.1371 60 5.24537e-06L5.24537e-06 0L0 60Z" fill="#c7f464"/></svg><svg><path transform="translate(660, 360) translate(30,30) rotate(180) translate(-30,-30)" d="M0 60C33.1371 60 60 33.1371 60 5.24537e-06L5.24537e-06 0L0 60Z" fill="#556270"/></svg></svg>