<?xml version="1.0" encoding="utf-8"?>
<svg viewBox="85.069 58.573 305.873 231.725" xmlns="http://www.w3.org/2000/svg">
  <path style="opacity: 20%; fill: rgba(216, 216, 216); stroke: rgb(0, 0, 0); fill-opacity: 0; paint-order: fill markers; stroke-miterlimit: 24.56; stroke-width: 4px; stroke-dashoffset: -2px; stroke-dasharray: 15, 10; stroke-linecap: square;" d="M 115.457 116.068 C 130.728 121.108 130.748 139.898 127.528 152.567 C 126.136 158.046 120.189 166.003 117.177 170.873 C 113.701 176.494 109.415 181.546 106.482 187.365 C 95.766 208.618 102.119 231.724 117.594 248.932 C 124.546 256.663 129.538 263.359 139.705 267.58 C 151.811 272.606 163.236 276.924 176.475 277.822 C 179.364 278.018 185.615 278.088 188.423 277.379 C 193.29 276.15 199.618 274.174 204.266 271.577 C 212.884 266.761 216.847 264.576 224.449 258.003 C 228.353 254.627 229.545 247.524 231.345 242.906 C 237.15 228.015 241.198 195.38 238.068 181.464 C 235.193 168.684 219.977 156.748 219.977 148.327 C 219.977 143.84 220.341 136.009 224.012 129.07 C 230.376 117.04 229.569 119.009 233.781 113.347 C 239.267 105.972 243.697 100.093 250.527 93.672 C 256.718 87.853 267.517 80.89 276.347 80.511 C 289.395 79.951 286.428 90.285 303.245 91.238 C 324.65 92.451 333.091 76.159 345.524 83.11 C 347.96 84.472 353.698 86.737 355.194 94.852 C 356.134 99.949 359.378 104.627 352.316 113.265 C 347.036 119.724 337.394 122.56 331.812 129.722 C 325.955 137.237 325.828 133.019 326.386 145.765 C 327.628 157.114 337.322 163.484 347.663 171.481 C 350.282 173.506 354.014 174.051 356.28 176.317" transform="matrix(1, 0, 0, 1, 1.7763568394002505e-15, 0)"/>
</svg>